REM MD5 0cc3b1d5cd631c4b83ca99b4822451d7
FILE "Euro Demo 02-00 (Germany).bin" BINARY
  TRACK 01 MODE2/2352
    INDEX 01 00:00:00
  TRACK 02 AUDIO
    INDEX 00 48:59:22
    INDEX 01 49:01:22
  TRACK 03 AUDIO
    INDEX 00 49:31:11
    INDEX 01 49:33:11
REM LEADOUT 52:34:43
